<svg xmlns="http://www.w3.org/2000/svg" viewBox="0 0 840.77002 511.63" xmlns:xlink="http://www.w3.org/1999/xlink"><path d="M707.57911,608.44435a10.26339,10.26339,0,0,0,9.73456-.28633c.75351-.43821,1.331.78536.58243,1.22072a11.501,11.501,0,0,1-10.76833.34063.699.699,0,0,1-.41184-.86318.6797.6797,0,0,1,.86318-.41184Z" transform="translate(-179.61499 -194.185)" fill="#fff"/><path d="M1020.385,704.625a1.18648,1.18648,0,0,1-1.18994,1.19h-429.3a1.19,1.19,0,1,1,0-2.38h429.3A1.18644,1.18644,0,0,1,1020.385,704.625Z" transform="translate(-179.61499 -194.185)" fill="#ccc"/><path d="M696.6228,255.12933H182.98511a1,1,0,0,1,0-2H696.6228a1,1,0,0,1,0,2Z" transform="translate(-179.61499 -194.185)" fill="#c0ddb4"/><path d="M696.6228,295.12933H182.98511a1,1,0,1,1,0-2H696.6228a1,1,0,0,1,0,2Z" transform="translate(-179.61499 -194.185)" fill="#c0ddb4"/><path d="M696.6228,335.12933H182.98511a1,1,0,1,1,0-2H696.6228a1,1,0,0,1,0,2Z" transform="translate(-179.61499 -194.185)" fill="#c0ddb4"/><path d="M696.6228,375.12933H182.98511a1,1,0,1,1,0-2H696.6228a1,1,0,0,1,0,2Z" transform="translate(-179.61499 -194.185)" fill="#c0ddb4"/><path d="M696.6228,415.12933H182.98511a1,1,0,1,1,0-2H696.6228a1,1,0,0,1,0,2Z" transform="translate(-179.61499 -194.185)" fill="#c0ddb4"/><path d="M304.615,416.685a1.00006,1.00006,0,0,1-1-.99414l-1-161.99951a1.00007,1.00007,0,0,1,.99365-1.00635h.00635a1.00028,1.00028,0,0,1,1,.99365l1,162.00049a1.00027,1.00027,0,0,1-.99365,1.00586Z" transform="translate(-179.61499 -194.185)" fill="#c0ddb4"/><path d="M443.615,416.685a1.00006,1.00006,0,0,1-1-.99414l-1-161.99951a1.00007,1.00007,0,0,1,.99365-1.00635h.00635a1.00028,1.00028,0,0,1,1,.99365l1,162.00049a1.00027,1.00027,0,0,1-.99365,1.00586Z" transform="translate(-179.61499 -194.185)" fill="#c0ddb4"/><path d="M582.615,416.685a1.00006,1.00006,0,0,1-1-.99414l-1-161.99951a1.00007,1.00007,0,0,1,.99365-1.00635h.00635a1.00028,1.00028,0,0,1,1,.99365l1,162.00049a1.00027,1.00027,0,0,1-.99365,1.00586Z" transform="translate(-179.61499 -194.185)" fill="#c0ddb4"/><path d="M288.115,221.185h-95a13.5,13.5,0,1,1,0-27h95a13.5,13.5,0,0,1,0,27Z" transform="translate(-179.61499 -194.185)" fill="#c0ddb4"/><path d="M259.669,285.685h-38.1081a10.94595,10.94595,0,1,1,0-21.89189H259.669a10.94595,10.94595,0,1,1,0,21.89189Z" transform="translate(-179.61499 -194.185)" fill="#89ba74"/><path d="M392.669,324.685h-38.1081a10.94594,10.94594,0,1,1,0-21.89189H392.669a10.94595,10.94595,0,1,1,0,21.89189Z" transform="translate(-179.61499 -194.185)" fill="#89ba74"/><path d="M392.669,367.685h-38.1081a10.94595,10.94595,0,1,1,0-21.89189H392.669a10.94595,10.94595,0,1,1,0,21.89189Z" transform="translate(-179.61499 -194.185)" fill="#89ba74"/><path d="M534.669,286.685h-38.1081a10.94594,10.94594,0,1,1,0-21.89189H534.669a10.94595,10.94595,0,1,1,0,21.89189Z" transform="translate(-179.61499 -194.185)" fill="#89ba74"/><path d="M750.669,488.685h-38.1081a10.94594,10.94594,0,1,1,0-21.89189H750.669a10.94594,10.94594,0,1,1,0,21.89189Z" transform="translate(-179.61499 -194.185)" fill="#89ba74"/><path d="M422.94832,221.685h-95a13.5,13.5,0,0,1,0-27h95a13.5,13.5,0,0,1,0,27Z" transform="translate(-179.61499 -194.185)" fill="#c0ddb4"/><path d="M557.78166,222.685h-95a13.5,13.5,0,0,1,0-27h95a13.5,13.5,0,0,1,0,27Z" transform="translate(-179.61499 -194.185)" fill="#c0ddb4"/><path d="M692.615,222.685h-95a13.5,13.5,0,0,1,0-27h95a13.5,13.5,0,0,1,0,27Z" transform="translate(-179.61499 -194.185)" fill="#c0ddb4"/><path d="M234.58874,216.06572l9.10286-14.83652-2.74163-.35832L246.49,214.81051a1.54606,1.54606,0,0,0,1.84517,1.04766,1.51047,1.51047,0,0,0,1.04766-1.84518l-5.54005-13.93962a1.52262,1.52262,0,0,0-2.74162-.35832l-9.10286,14.83651c-1.01241,1.65011,1.58132,3.15885,2.59041,1.51416Z" transform="translate(-179.61499 -194.185)" fill="#fff"/><path d="M236.64632,211.07261l7.93734-.119a1.5,1.5,0,0,0,0-3l-7.93734.119a1.5,1.5,0,0,0,0,3Z" transform="translate(-179.61499 -194.185)" fill="#fff"/><path d="M380.64838,207.83868a4.329,4.329,0,0,0-.79657-1.10815,3.8551,3.8551,0,0,0,.2185-4.51776,5.39349,5.39349,0,0,0-3.1593-2.22681,10.77618,10.77618,0,0,0-4.59955.0968,1.3939,1.3939,0,0,0-.30792-.03662,1.52507,1.52507,0,0,0-1.5,1.5q-.26477,5.9123-.52948,11.82453a1.35667,1.35667,0,0,0-.14886.29223,1.60612,1.60612,0,0,0,.10247,1.0307,1.52325,1.52325,0,0,0,1.492,1.39112,1.44334,1.44334,0,0,0,1.00445-.40448c2.96173.22039,6.066-.26123,7.83869-2.949A5.01258,5.01258,0,0,0,380.64838,207.83868Zm-3.246,3.70209a5.39065,5.39065,0,0,1-4.40106,1.22058q.22037-4.921.44068-9.84186c1.34906-.222,2.88623-.34063,3.81909.56775a1.90655,1.90655,0,0,1,.37585.50745c.01007.02673.08313.40082.07538.29773.01642.2182.02338.10669-.03607.30664a1.19477,1.19477,0,0,1-.89575.81763,1.53707,1.53707,0,0,0-1.5,1.5,1.51867,1.51867,0,0,0,1.5,1.5,1.37592,1.37592,0,0,1,1.30761,1.09131A2.34657,2.34657,0,0,1,377.4024,211.54077Z" transform="translate(-179.61499 -194.185)" fill="#fff"/><path d="M512.962,200.84839a9.67168,9.67168,0,0,0-7.90394,9.23431,8.96913,8.96913,0,0,0,2.31183,6.3781c1.78888,1.83416,4.268,1.85386,6.63885,1.53619a1.55007,1.55007,0,0,0,1.5-1.5c0-.72682-.69126-1.60836-1.5-1.5-1.54448.20695-3.4184.54294-4.59424-.73631a6.12965,6.12965,0,0,1-1.34726-4.41412,6.68749,6.68749,0,0,1,5.69228-6.10533,1.51244,1.51244,0,0,0,1.04766-1.84518,1.53431,1.53431,0,0,0-1.84518-1.04766Z" transform="translate(-179.61499 -194.185)" fill="#fff"/><path d="M640.44006,202.26626l.38443,14.461a1.52186,1.52186,0,0,0,1.89876,1.44641,8.87641,8.87641,0,0,0-.074-17.395,1.53787,1.53787,0,0,0-1.84517,1.04766,1.51446,1.51446,0,0,0,1.04766,1.84518,5.88808,5.88808,0,0,1,.074,11.60933l1.89876,1.44642-.38443-14.461c-.05123-1.92678-3.05143-1.93441-3,0Z" transform="translate(-179.61499 -194.185)" fill="#fff"/><path d="M843.565,498.96729a10.05576,10.05576,0,0,1,2.72838-15.176l-6.58212-35.12342,17.12013,7.19268,3.62579,32.25109A10.11027,10.11027,0,0,1,843.565,498.96729Z" transform="translate(-179.61499 -194.185)" fill="#ffb6b6"/><polygon points="643.926 497.887 631.666 497.886 625.834 450.598 643.928 450.599 643.926 497.887" fill="#ffb6b6"/><path d="M825.10974,571.17535s7.45789-45.67346,14.45789-57.67346,4.76208-40.33471,4.76208-40.33471l-6.82617-.56592a9.52347,9.52347,0,0,0-.44385-3.37158c-3.49206-9.72779-52.15747-6.27417-52.15747-6.27417s-18.19031,28.56213-11.76257,54.05419c6.428,25.49219,13.428,74.49219,13.428,74.49219L807.615,671.685l18-1-1.91406-45.32959.51074.16626Z" transform="translate(-179.61499 -194.185)" fill="#2f2e41"/><path d="M853.06757,336.00192l-18.22786-21.2165-29.26032-.84988-11.18963,17.98984L791.615,351.685,777.39971,469.22961S823.965,491.549,849.01626,480.77544l12.05131-100.77352C866.06757,360.00192,853.06757,336.00192,853.06757,336.00192Z" transform="translate(-179.61499 -194.185)" fill="#c0ddb4"/><circle cx="641.98031" cy="87.72755" r="25.37" fill="#ffb6b6"/><path d="M852.164,276.14046c-.77906-5.56977-4.55127-10.85828-9.916-12.54566-2.1311-6.1886-7.77588-10.74475-14.01245-12.73083a27.3719,27.3719,0,0,0-31.467,11.47662c-.4773.75043-1.94482,2.594-1.90381,3.4895.052,1.13733,1.792,2.31165,2.666,3.02869a39.08474,39.08474,0,0,0,6.97046,4.30224c9.1228,4.72962,6.08593,12.16248,5.96215,20.58533-.06005,4.09314,1.3064,7.588,4.79663,9.926,5.03711,3.3742,12.24585,2.0318,17.72657.67761,6.219-1.53674,11.3894-7,14.936-12.26764C851.06365,287.41719,852.94328,281.71022,852.164,276.14046Z" transform="translate(-179.61499 -194.185)" fill="#2f2e41"/><polygon points="672.725 174.846 682.597 283.129 650.881 281.428 672.725 174.846" fill="#c0ddb4"/><path d="M744.7497,475.221a9.467,9.467,0,0,0,4.10274-13.92475l20.351-26.78925-17.44363-1.16471-16.65136,25.61809A9.51834,9.51834,0,0,0,744.7497,475.221Z" transform="translate(-179.61499 -194.185)" fill="#ffb8b8"/><path id="e057fb1a-ffdb-4bf3-ab7a-49707c32e635-1082" data-name="e1bf2fad-858c-4bea-9733-320cc40b59f5" d="M802.38894,331.26362l-3.386-1.31562-3.26916,1.15529s-10.22319,9.7422-11.93424,19.95585c-.76565,4.57035-12.67729,49.2548-12.67729,49.2548L739.3867,448.98407l17.17033,11.4676,43.76675-65.57776Z" transform="translate(-179.61499 -194.185)" fill="#c0ddb4"/><path d="M826.04728,688.47929l-3.53555-.00013-13.80331-5.61346-7.39817,5.61261h-.001a15.76523,15.76523,0,0,0-15.76435,15.76416v.51227l40.50162.00152Z" transform="translate(-179.61499 -194.185)" fill="#2f2e41"/><polygon points="702.629 451.775 693.942 460.426 656.439 431.038 669.259 418.27 702.629 451.775" fill="#ffb6b6"/><path d="M879.17849,640.75909,877.094,643.6148l-12.67191,7.84.1719,9.28465-.00059.00081a15.76522,15.76522,0,0,0,3.43936,22.02712l.41377.302,23.87894-32.71356Z" transform="translate(-179.61499 -194.185)" fill="#2f2e41"/><polygon points="637 379.5 694 438.5 678 452.5 633.205 417.315 637 379.5" fill="#2f2e41"/></svg>
